<?xml version="1.0" encoding="UTF-8" standalone="no"?>
<!-- Created with Inkscape (http://www.inkscape.org/) -->

<svg
   xmlns:dc="http://purl.org/dc/elements/1.1/"
   xmlns:cc="http://creativecommons.org/ns#"
   xmlns:rdf="http://www.w3.org/1999/02/22-rdf-syntax-ns#"
   xmlns:svg="http://www.w3.org/2000/svg"
   xmlns="http://www.w3.org/2000/svg"
   xmlns:sodipodi="http://sodipodi.sourceforge.net/DTD/sodipodi-0.dtd"
   xmlns:inkscape="http://www.inkscape.org/namespaces/inkscape"
   width="64px"
   height="64px"
   id="svg2985"
   version="1.1"
   inkscape:version="0.48.0 r9654"
   sodipodi:docname="emptySet.svg">
  <defs
     id="defs2987" />
  <sodipodi:namedview
     id="base"
     pagecolor="#ffffff"
     bordercolor="#666666"
     borderopacity="1.0"
     inkscape:pageopacity="0.0"
     inkscape:pageshadow="2"
     inkscape:zoom="5.5"
     inkscape:cx="-23.239973"
     inkscape:cy="3.9450893"
     inkscape:current-layer="layer1"
     showgrid="true"
     inkscape:document-units="px"
     inkscape:grid-bbox="true"
     inkscape:window-width="1920"
     inkscape:window-height="1003"
     inkscape:window-x="0"
     inkscape:window-y="24"
     inkscape:window-maximized="1" />
  <metadata
     id="metadata2990">
    <rdf:RDF>
      <cc:Work
         rdf:about="">
        <dc:format>image/svg+xml</dc:format>
        <dc:type
           rdf:resource="http://purl.org/dc/dcmitype/StillImage" />
        <dc:title></dc:title>
      </cc:Work>
    </rdf:RDF>
  </metadata>
  <g
     id="layer1"
     inkscape:label="Layer 1"
     inkscape:groupmode="layer">
    <g
       id="g3809"
       transform="matrix(1.2024222,0,0,1.2024222,-6.9331517,-7.3497698)">
      <path
         inkscape:connector-curvature="0"
         id="path2993"
         d="m 32.454533,7.6225218 c -13.857327,0 -25.0937504,11.2364232 -25.0937504,25.0937502 0,13.857327 11.2364234,25.09375 25.0937504,25.09375 13.857327,0 25.09375,-11.236423 25.09375,-25.09375 0,-13.857327 -11.236423,-25.0937502 -25.09375,-25.0937502 z m 0,5.0937502 c 11.196319,0 20.28125,8.954304 20.28125,20 0,11.045696 -9.084931,20 -20.28125,20 -11.196319,0 -20.25,-8.954304 -20.25,-20 0,-11.045696 9.053681,-20 20.25,-20 z"
         style="fill:#0a1549;fill-opacity:1;fill-rule:evenodd;stroke:none" />
      <rect
         transform="matrix(0.70710678,-0.70710678,0.70710678,0.70710678,0,0)"
         y="43.526234"
         x="-34.466278"
         height="5.1129684"
         width="68.562401"
         id="rect3786"
         style="fill:#0a1549;fill-opacity:1;stroke:none" />
    </g>
  </g>
</svg>
